<?xml version="1.0" standalone="no"?>
<!DOCTYPE svg PUBLIC "-//W3C//DTD SVG 20010904//EN"
 "http://www.w3.org/TR/2001/REC-SVG-20010904/DTD/svg10.dtd">
<svg version="1.0" xmlns="http://www.w3.org/2000/svg"
 width="512.000000pt" height="512.000000pt" viewBox="0 0 512.000000 512.000000"
 preserveAspectRatio="xMidYMid meet">
<metadata>
Created by potrace 1.16, written by Peter Selinger 2001-2019
</metadata>
<g transform="translate(0.000000,512.000000) scale(0.100000,-0.100000)"
fill="#000000" stroke="none">
<path d="M2279 4721 c-14 -5 -35 -14 -47 -20 -34 -18 -82 -90 -82 -122 0 -23
-29 -163 -46 -221 -4 -13 -16 -18 -44 -18 -33 0 -44 -6 -77 -45 -37 -43 -44
-46 -196 -94 -209 -64 -224 -75 -311 -226 -101 -177 -204 -386 -216 -440 -13
-57 -1 -135 31 -197 32 -63 79 -121 190 -235 65 -68 99 -110 99 -125 1 -13 9
-47 19 -76 l18 -52 -45 -58 c-57 -73 -53 -63 -195 -477 -65 -192 -162 -474
-214 -625 -52 -151 -102 -301 -111 -332 -12 -43 -21 -58 -34 -58 -10 0 -27 -9
-38 -20 -19 -19 -33 -20 -490 -20 -307 0 -470 -3 -470 -10 0 -7 162 -10 466
-10 286 0 463 -4 459 -9 -3 -5 -29 -17 -59 -25 -64 -19 -74 -29 -78 -81 -3
-34 -7 -40 -28 -43 -73 -8 -100 -36 -100 -106 0 -72 45 -115 103 -100 15 3 27
4 27 2 0 -24 -36 -118 -52 -135 -13 -14 -19 -32 -16 -55 l3 -33 -88 -3 c-66
-2 -89 -6 -94 -17 -4 -11 -26 -15 -87 -17 -78 -1 -77 -2 34 -8 171 -11 953
-11 969 -1 8 5 11 16 8 24 -4 11 3 17 26 21 68 14 85 67 48 149 -11 23 -40 89
-65 145 -87 197 -134 256 -232 289 -27 9 -55 25 -62 35 -9 13 -26 18 -59 18
-39 0 -44 2 -38 18 4 9 15 46 26 82 41 144 170 514 183 524 7 6 72 182 142
390 71 209 137 389 147 400 10 12 16 16 14 11 -8 -16 12 -440 28 -611 10 -114
11 -169 3 -225 -22 -156 5 -494 55 -674 15 -55 21 -110 22 -175 0 -85 3 -100
28 -144 21 -38 27 -62 27 -107 l0 -59 -49 0 c-49 0 -72 -13 -54 -31 32 -32
470 -52 481 -21 3 9 -28 12 -130 13 -73 1 -144 5 -158 9 -15 5 34 8 129 8 152
-1 155 -1 163 22 11 31 -8 87 -35 101 -25 14 -70 62 -88 95 -11 21 -10 29 4
53 22 38 22 41 -13 92 -16 24 -30 56 -30 71 l0 26 109 -1 109 -2 26 -53 c14
-29 44 -72 65 -95 43 -46 43 -48 26 -223 -6 -60 -7 -61 -43 -70 -55 -14 -48
-38 13 -45 88 -12 488 -22 548 -15 50 7 59 11 68 34 20 53 -18 100 -102 122
-24 7 -55 22 -67 33 -45 41 -52 69 -52 194 l0 118 107 0 107 0 21 -58 c23 -66
71 -121 120 -137 32 -11 32 -11 38 -93 3 -45 9 -92 13 -104 6 -23 5 -23 -74
-23 -45 0 -84 -5 -87 -10 -4 -6 24 -10 77 -11 l83 -1 -48 -11 c-27 -7 -48 -16
-48 -22 1 -16 95 -22 431 -30 361 -7 654 5 679 29 13 13 12 16 -10 24 -13 5
-33 12 -44 15 -11 2 43 6 120 7 237 4 289 17 80 20 -212 3 -315 11 -318 25 -1
6 33 13 78 16 168 14 278 84 311 196 12 42 13 60 5 86 -23 68 -105 114 -183
104 l-40 -5 33 34 33 34 448 0 c292 0 448 3 448 10 0 7 -160 10 -459 10 l-459
0 -26 -31 c-25 -29 -28 -30 -62 -19 -20 7 -59 10 -86 8 -35 -4 -46 -2 -39 5
16 16 13 37 -4 37 -17 0 -18 17 -9 97 5 39 11 53 25 56 23 6 24 32 4 146 -19
108 -41 143 -112 178 -54 26 -65 27 -233 31 l-177 4 -17 36 c-10 20 -13 39 -8
44 5 5 51 7 103 6 l94 -3 18 -38 c16 -32 23 -37 54 -37 34 0 35 1 29 31 -10
51 -35 94 -65 112 -79 47 -298 37 -332 -15 -5 -8 -186 362 -297 604 l-35 78
27 38 c23 33 26 48 26 116 l0 79 -50 45 c-27 25 -50 52 -50 61 -1 9 -8 34 -16
56 -8 22 -33 103 -54 180 -57 206 -185 557 -248 680 -36 71 -57 92 -179 174
-113 77 -122 87 -88 95 18 5 25 13 25 32 0 38 39 84 71 84 30 0 39 15 39 65 0
23 6 38 19 44 10 6 21 22 25 35 l6 25 43 -19 c23 -11 57 -20 75 -20 104 0 92
85 -19 136 -33 14 -41 24 -53 68 -24 80 -50 114 -109 141 -54 26 -142 32 -198
16z m95 -88 l-2 -78 7 72 c3 39 9 74 13 78 11 11 89 -18 118 -45 27 -25 67
-127 54 -139 -3 -3 -59 -7 -124 -8 -125 -3 -232 19 -260 51 -13 17 8 72 40
101 24 22 87 44 125 45 l30 0 -1 -77z m261 -160 c43 -21 44 -29 4 -37 -67 -13
-153 -7 -194 15 -68 36 -64 39 48 39 79 0 115 -4 142 -17z m-378 -43 c9 -22
19 -40 23 -40 4 0 27 17 51 39 l43 38 46 -28 c25 -15 57 -31 73 -34 35 -9 36
-40 2 -49 -21 -5 -25 -12 -25 -44 0 -59 -11 -68 -58 -49 -36 15 -41 15 -46 0
-5 -12 -1 -14 17 -9 13 3 27 3 30 0 7 -8 -46 -54 -62 -54 -14 0 -14 -13 1 -28
19 -19 -4 -35 -33 -24 -64 25 -113 104 -107 172 3 30 0 50 -9 58 -16 15 -17
46 -3 73 17 31 40 22 57 -21z m-73 -161 c1 -78 4 -101 19 -116 16 -19 16 -20
-1 -36 -17 -15 -21 -14 -65 27 -39 36 -47 49 -47 79 0 23 -6 39 -17 45 -14 8
-9 17 35 60 29 28 52 57 52 64 0 7 6 4 12 -7 7 -11 12 -62 12 -116z m-139 -66
c15 -21 44 -52 64 -70 l36 -31 -21 -28 c-11 -15 -25 -29 -30 -31 -30 -10 -124
114 -124 164 0 12 8 38 18 56 l17 35 6 -29 c4 -16 19 -46 34 -66z m-113 -25
c-9 -3 -56 -15 -103 -27 -89 -21 -206 -67 -197 -77 3 -3 23 2 44 11 22 9 93
30 158 46 96 24 121 28 127 17 5 -7 9 -16 9 -20 0 -13 102 -118 114 -118 7 0
21 9 31 20 23 25 35 25 35 1 0 -28 11 -52 21 -45 5 3 9 24 9 47 0 38 4 44 36
60 40 20 48 18 38 -7 -4 -10 -13 -14 -24 -11 -25 8 -32 -19 -9 -33 41 -26 7
-157 -96 -367 l-63 -130 -7 -185 c-5 -162 -3 -195 13 -263 l20 -79 -22 5 c-11
3 -66 13 -120 23 -139 24 -156 41 -196 189 -34 126 -65 275 -75 356 l-6 56 58
35 c53 33 126 98 110 98 -3 0 -28 -13 -54 -30 -77 -49 -109 -39 -63 21 37 46
56 90 64 149 l6 45 -21 -53 c-12 -30 -43 -77 -74 -110 l-53 -57 10 50 c16 84
-8 251 -40 277 -14 11 -15 10 -8 -7 31 -76 33 -213 5 -320 -11 -43 -25 -87
-30 -97 -9 -17 -11 -17 -42 6 -18 13 -44 26 -59 30 -32 7 -105 -7 -122 -24 -8
-8 -4 -9 17 -1 65 25 141 4 168 -46 18 -33 7 -37 -32 -14 -41 25 -83 27 -134
5 -47 -19 -39 -29 12 -15 51 15 74 14 117 -4 45 -19 39 -37 -8 -23 -41 13 -97
4 -128 -21 l-23 -19 46 10 c58 14 110 4 136 -25 11 -12 32 -58 47 -102 16 -44
37 -95 48 -113 11 -18 19 -34 17 -35 -2 -2 -21 -10 -41 -20 -21 -9 -38 -21
-38 -27 0 -14 11 -12 34 5 29 22 52 18 88 -15 l33 -29 -31 -1 c-40 0 -82 -33
-103 -81 -16 -34 -18 -36 -29 -19 -9 15 -6 28 14 67 24 47 24 47 2 22 -13 -14
-27 -34 -33 -43 -9 -15 -20 -7 -82 56 -114 115 -158 194 -169 307 -6 54 -3 61
52 166 73 140 229 403 257 433 38 42 89 61 332 126 18 5 25 -19 7 -26z m376
-91 c3 -28 -13 -67 -28 -67 -17 0 -22 40 -8 70 15 35 32 34 36 -3z m137 -115
c129 -92 149 -119 214 -298 24 -66 61 -154 82 -198 44 -88 51 -120 21 -93 -23
21 -93 22 -132 2 -37 -19 -37 -14 0 41 45 65 8 43 -40 -24 -39 -53 -51 -92
-30 -92 6 0 34 14 63 30 82 46 138 36 172 -29 19 -38 77 -259 71 -270 -3 -5 0
-11 8 -14 7 -3 18 -19 24 -35 10 -29 10 -30 -16 -22 -33 9 -69 -3 -102 -35
l-26 -24 -69 84 c-72 88 -144 206 -165 270 -7 21 -10 62 -8 93 4 47 0 67 -29
133 -18 42 -33 85 -33 95 0 9 23 49 52 88 48 66 46 71 -9 23 l-22 -19 18 58
c45 146 33 162 -18 24 -17 -47 -47 -130 -68 -185 -26 -70 -38 -121 -41 -172
l-4 -72 -74 -56 c-41 -30 -74 -58 -74 -61 0 -8 110 54 133 74 16 14 17 13 17
-12 0 -45 -17 -64 -113 -126 -105 -68 -108 -79 -6 -21 l69 40 0 -73 c0 -68 -2
-74 -22 -80 -33 -8 -151 -7 -165 2 -7 5 -20 46 -30 91 -14 73 -15 106 -6 260
l11 176 46 87 c46 84 106 246 120 319 4 26 11 36 23 35 11 -1 20 11 26 32 6
17 13 32 16 32 3 0 56 -35 116 -78z m-830 -502 c8 -68 15 -129 15 -135 -1 -8
-40 98 -67 178 -3 10 2 26 12 37 11 12 15 26 10 42 -5 16 -4 20 3 13 6 -6 18
-66 27 -135z m831 -44 c15 -27 30 -81 36 -120 13 -95 69 -202 171 -329 116
-142 119 -149 111 -192 -9 -50 19 -120 57 -142 16 -10 29 -21 29 -24 0 -4 -16
-34 -35 -66 -19 -32 -45 -98 -59 -148 -14 -49 -37 -128 -51 -175 -14 -47 -48
-169 -74 -273 -27 -104 -51 -180 -55 -171 -3 8 -6 56 -6 105 0 75 -4 97 -24
137 -35 70 -50 129 -101 405 l-46 248 26 30 c48 58 45 119 -8 189 -62 82 -65
89 -72 187 -7 90 -6 96 17 120 21 23 23 33 23 131 1 115 11 174 27 150 5 -7
20 -35 34 -62z m-659 -385 c35 -50 63 -96 63 -101 0 -17 -21 -11 -41 13 l-20
22 6 -60 c6 -50 4 -58 -7 -47 -7 7 -21 34 -31 60 -9 26 -15 34 -12 18 3 -15 9
-42 12 -59 8 -41 -11 -28 -38 25 -24 46 -33 46 -20 0 9 -30 0 -44 -14 -22 -3
5 -12 7 -20 3 -18 -6 -51 61 -60 122 -11 72 47 145 99 126 11 -5 49 -49 83
-100z m201 -66 c52 -6 62 -10 62 -26 0 -10 -2 -19 -5 -19 -25 0 -175 45 -175
52 0 5 12 7 28 4 15 -3 55 -8 90 -11z m339 -32 c-3 -10 -5 -4 -5 12 0 17 2 24
5 18 2 -7 2 -21 0 -30z m-186 17 c32 0 39 -3 39 -20 0 -16 -7 -20 -32 -20 -54
0 -78 10 -78 32 0 14 5 18 16 14 9 -3 33 -6 55 -6z m159 -15 c0 -9 -9 -15 -24
-15 -13 0 -38 -3 -55 -6 -27 -6 -31 -4 -31 15 0 19 6 21 55 21 42 0 55 -3 55
-15z m639 -57 c69 -62 70 -64 72 -118 4 -86 1 -102 -21 -124 l-21 -21 16 35
c13 28 15 43 7 70 l-10 35 -1 -45 c-2 -70 -21 -87 -21 -18 0 57 -16 88 -44 88
-8 0 -27 3 -44 6 -25 5 -31 2 -38 -17 -4 -13 -7 -40 -6 -59 l2 -35 -21 25
c-17 20 -19 32 -14 60 4 19 7 59 6 89 -2 58 16 91 50 91 11 0 50 -28 88 -62z
m-926 25 l89 -17 -4 -127 c-2 -70 0 -125 5 -122 4 2 7 60 7 129 l0 124 83 0
c45 0 100 5 121 10 48 11 67 2 95 -44 35 -56 26 -108 -29 -156 l-29 -25 43
-210 c54 -261 78 -350 116 -425 27 -53 30 -69 30 -149 0 -50 5 -112 11 -140 8
-40 6 -87 -11 -233 -17 -137 -21 -208 -16 -282 8 -111 13 -124 65 -180 34 -36
34 -38 11 -32 -14 4 -48 9 -76 13 -47 5 -52 3 -72 -22 -26 -33 -23 -41 9 -25
33 18 145 7 178 -18 46 -34 39 -47 -24 -44 -41 3 -80 -3 -141 -23 -46 -15 -91
-25 -98 -22 -23 9 -1 102 42 176 21 36 43 79 50 94 16 37 15 130 -3 306 -19
183 -20 194 -53 325 l-26 108 27 107 c15 58 27 111 27 116 -1 6 -17 -28 -36
-75 -45 -109 -51 -170 -26 -286 19 -86 19 -97 4 -233 l-16 -144 -22 114 c-13
63 -41 175 -64 249 -23 74 -52 182 -65 240 -13 58 -33 145 -45 194 -12 48 -19
90 -17 92 2 3 16 -14 32 -35 32 -47 120 -132 155 -151 17 -9 9 4 -25 41 -28
30 -66 76 -84 102 -32 48 -95 187 -87 194 2 3 19 -3 38 -12 31 -15 31 -14 -11
23 l-44 39 59 16 c88 25 99 37 29 31 -33 -3 -70 -6 -82 -8 -13 -2 -23 -1 -23
2 0 11 44 52 55 52 17 0 116 45 140 64 18 14 15 14 -35 0 -30 -9 -59 -19 -65
-22 -5 -3 7 12 28 33 20 21 37 42 37 48 0 5 -17 -5 -37 -21 -38 -29 -76 -52
-88 -52 -4 0 5 14 19 31 16 19 26 43 26 63 0 18 3 55 6 82 4 27 3 46 -1 42 -4
-4 -11 -41 -16 -84 -9 -83 -29 -117 -75 -128 -17 -5 -26 -17 -34 -49 -6 -23
-29 -100 -50 -172 -88 -292 -107 -412 -85 -551 9 -59 0 -80 -74 -177 -67 -89
-70 -95 -38 -74 l27 17 0 -95 c0 -170 17 -281 55 -362 l33 -72 -23 -15 c-23
-15 -24 -14 -70 72 -49 93 -52 78 -5 -25 l29 -63 -22 -11 c-12 -6 -36 -25 -54
-41 l-31 -30 1 73 c2 52 -9 126 -35 249 -50 235 -66 390 -51 517 53 443 90
655 118 678 19 14 55 162 55 223 0 44 3 51 24 56 13 3 26 13 30 21 7 18 -3 45
-16 45 -6 0 -8 -7 -5 -15 4 -8 2 -17 -2 -20 -16 -9 -19 20 -9 79 9 52 12 57
32 52 11 -4 61 -14 109 -23z m-299 -79 c9 -3 16 -14 16 -23 0 -9 6 -28 14 -42
12 -24 11 -32 -6 -70 -10 -24 -27 -75 -37 -113 l-18 -69 -13 66 c-9 47 -9 79
-2 114 6 26 8 69 5 96 -6 49 1 56 41 41z m115 -8 c15 -18 -9 -39 -41 -34 -31
4 -36 35 -6 41 13 2 26 5 29 6 4 0 12 -5 18 -13z m-259 -108 c-19 -29 -67
-162 -147 -406 -64 -200 -119 -360 -120 -355 -2 5 51 174 117 376 84 257 128
375 146 396 37 44 39 38 4 -11z m250 -38 c0 -13 -11 -13 -30 0 -12 8 -11 10 8
10 12 0 22 -4 22 -10z m-26 -83 c-18 -76 -22 -88 -23 -61 -2 35 21 134 29 129
5 -3 2 -33 -6 -68z m1158 -4 c11 -27 85 -184 164 -350 140 -295 185 -399 102
-238 -62 120 -298 616 -298 626 0 21 13 6 32 -38z m73 -272 c144 -307 197
-429 202 -471 5 -37 4 -39 -54 -78 -63 -43 -127 -108 -145 -148 -6 -13 -14
-24 -17 -24 -3 0 -16 53 -28 118 -13 64 -48 198 -79 297 -81 262 -84 369 -13
490 12 20 25 33 30 28 4 -4 51 -100 104 -212z m-928 -163 c36 -84 75 -177 86
-206 l20 -53 -21 -43 c-55 -115 -57 -355 -3 -561 17 -66 31 -120 31 -120 0 0
-48 2 -107 3 -60 2 -109 5 -110 6 -1 1 -9 78 -18 172 -8 93 -22 213 -31 266
-14 91 -14 99 3 130 14 27 17 60 18 183 0 131 4 165 30 267 15 65 31 116 33
113 3 -2 34 -73 69 -157z m699 -95 c45 -171 137 -601 136 -633 -1 -14 -4 -76
-8 -137 l-6 -113 -62 -1 c-33 0 -70 -2 -81 -5 -11 -2 -34 -2 -52 1 -31 6 -31
6 -43 93 -7 48 -25 158 -41 244 -16 86 -29 169 -29 185 0 28 92 396 126 508
18 58 19 59 22 25 2 -19 19 -94 38 -167z m821 -156 c17 -17 17 -17 -15 -1 -49
24 -201 17 -232 -11 -22 -20 -24 -55 -6 -96 5 -12 1 -18 -18 -21 -25 -5 -26
-4 -20 36 10 79 14 87 47 102 48 21 220 15 244 -9z m-750 -29 c-3 -8 -6 -5 -6
6 -1 11 2 17 5 13 3 -3 4 -12 1 -19z m-545 -378 c52 -224 59 -292 43 -430 l-8
-65 -28 35 c-63 75 -133 301 -148 474 -9 119 -1 220 24 296 l18 55 24 -75 c13
-41 47 -172 75 -290z m555 338 c-3 -8 -6 -5 -6 6 -1 11 2 17 5 13 3 -3 4 -12
1 -19z m48 -198 c25 -122 86 -282 123 -323 19 -21 26 -128 9 -139 -7 -4 -20
-8 -29 -8 -16 0 -18 11 -18 95 0 86 -3 101 -35 173 -29 66 -98 342 -94 378 1
17 19 -51 44 -176z m283 63 c-23 -24 -23 -29 -23 -229 0 -204 0 -204 -22 -204
-48 0 -134 105 -148 181 -5 29 1 49 34 114 45 85 73 121 136 167 34 25 41 27
43 13 2 -9 -7 -28 -20 -42z m296 14 c22 -12 54 -42 71 -67 31 -45 32 -45 106
-53 73 -8 212 -3 230 9 6 3 -2 26 -17 52 -19 32 -22 42 -10 33 28 -23 46 -67
52 -129 9 -84 4 -86 -175 -87 -159 0 -177 4 -340 73 l-84 35 6 65 c4 35 12 71
18 78 18 22 98 17 143 -9z m130 -23 c35 -33 39 -34 114 -34 46 0 83 5 90 12 9
9 14 6 20 -13 l9 -24 -110 -3 -111 -3 -47 51 c-25 27 -44 52 -42 54 10 9 43
-8 77 -40z m115 40 c17 -4 31 -11 31 -16 0 -14 -83 -5 -88 10 -4 13 10 15 57
6z m-1809 -285 c11 -123 22 -242 25 -264 13 -92 -46 63 -64 170 -6 33 -15 109
-20 170 -8 95 -7 113 7 137 9 15 20 24 25 19 4 -4 17 -109 27 -232z m669 61
c27 -128 71 -436 71 -490 l0 -44 -40 65 c-67 105 -81 143 -91 247 -8 79 -7
123 7 236 20 153 19 153 53 -14z m680 -76 c2 -212 1 -225 -16 -222 -22 4 -30
72 -32 279 -1 101 3 149 11 157 32 32 35 13 37 -214z m-2130 117 c-17 -51 -33
-90 -35 -88 -2 2 10 45 27 96 17 51 33 90 35 88 2 -2 -10 -45 -27 -96z m2417
-86 c66 -17 298 -21 352 -6 38 11 45 -5 8 -19 -45 -17 -246 -24 -311 -10 -66
14 -295 107 -295 120 0 5 42 -9 94 -30 51 -22 119 -46 152 -55z m-219 -250 c0
-92 -1 -95 -7 -40 -4 33 -8 121 -7 195 l0 135 7 -95 c4 -52 8 -140 7 -195z
m369 175 c46 0 86 -4 89 -10 4 -6 -13 -10 -43 -10 -27 0 -64 -3 -81 -6 -56
-11 -33 -24 44 -24 43 0 75 -4 75 -10 0 -6 -32 -10 -75 -10 -60 0 -75 -3 -75
-15 0 -12 15 -15 76 -15 47 0 73 -4 69 -10 -3 -5 -37 -10 -76 -10 -55 0 -69
-3 -69 -15 0 -12 15 -15 73 -16 81 -1 59 -16 -26 -18 -72 -1 -56 -25 19 -29
84 -4 91 -10 13 -11 -75 -1 -92 -13 -87 -58 3 -27 5 -28 65 -31 50 -2 63 -7
68 -21 3 -11 20 -26 37 -34 29 -14 26 -15 -98 -22 -150 -9 -337 6 -385 30 -32
17 -46 15 -34 -5 25 -40 251 -64 499 -52 144 6 146 5 146 -103 l0 -72 -82 -6
c-46 -4 -131 -7 -190 -7 -107 0 -107 0 -129 29 -27 37 -56 48 -147 56 l-72 7
-17 59 c-9 32 -29 74 -45 94 -39 47 -75 47 -121 0 -19 -19 -37 -32 -40 -28
-22 21 10 109 56 151 l25 23 7 -28 c8 -35 21 -43 67 -43 26 0 47 -9 77 -34 40
-34 58 -39 161 -51 l55 -7 -3 195 -3 195 47 -14 c26 -8 84 -14 130 -14z
m-2658 -139 c-9 -15 -23 -21 -46 -21 -45 0 -37 21 14 36 47 14 49 12 32 -15z
m2055 6 l47 -23 -29 -28 -28 -27 -7 32 c-3 18 -14 41 -23 51 -21 23 -18 23 40
-5z m-1945 -7 c10 -11 43 -27 73 -36 89 -26 162 -123 242 -321 41 -102 17 -71
-47 58 -89 180 -158 245 -284 265 -45 7 -61 28 -34 43 24 14 29 14 50 -9z
m2752 -14 c0 -2 -8 -10 -17 -17 -16 -13 -17 -12 -4 4 13 16 21 21 21 13z m113
-48 c-17 -22 -22 -60 -12 -80 14 -26 6 -32 -20 -18 -16 8 -21 20 -21 48 0 42
14 62 43 62 14 0 17 -3 10 -12z m-2799 -37 c66 -33 108 -86 181 -231 57 -114
68 -130 90 -130 27 0 40 -28 33 -71 -2 -19 -10 -25 -35 -27 -24 -2 -33 1 -33
12 0 28 -151 317 -186 356 -19 21 -58 48 -87 61 -47 22 -66 24 -182 23 -72 0
-142 -6 -157 -12 -23 -9 -28 -9 -28 3 0 12 16 17 130 39 14 2 71 3 127 1 80
-2 112 -8 147 -24z m2854 18 c-10 -5 -15 -17 -12 -27 5 -13 4 -14 -4 -3 -13
19 -4 41 17 41 14 -1 14 -2 -1 -11z m-1032 -52 c-18 -38 -23 -41 -33 -27 -6 9
-15 28 -18 43 -6 23 -4 26 27 29 18 2 36 2 39 1 4 -1 -3 -22 -15 -46z m737 24
c4 -17 -3 -19 -57 -24 -65 -5 -82 2 -73 27 5 12 21 16 66 16 49 0 59 -3 64
-19z m144 -3 c-3 -8 -6 -5 -6 6 -1 11 2 17 5 13 3 -3 4 -12 1 -19z m-2741 -46
c23 -12 54 -36 69 -54 27 -31 115 -206 130 -257 15 -51 -20 -11 -87 99 -124
205 -140 215 -336 214 -78 0 -141 1 -138 3 12 13 107 22 206 19 94 -2 122 -6
156 -24z m2772 -9 c-10 -2 -26 -2 -35 0 -10 3 -2 5 17 5 19 0 27 -2 18 -5z
m245 -14 c71 -37 89 -101 42 -157 -29 -34 -132 -83 -191 -90 l-41 -4 -6 68
c-5 65 -7 71 -46 105 l-41 37 70 -2 c63 -1 72 1 97 27 30 29 77 36 116 16z
m-969 -62 c16 -22 22 -46 24 -110 4 -95 -16 -145 -63 -162 -23 -8 -30 -6 -51
18 -58 68 -57 203 3 270 23 25 62 18 87 -16z m-1236 11 c19 -19 -4 -48 -39
-48 -41 0 -95 -24 -146 -66 -47 -38 -55 -38 -78 6 -15 29 -15 30 9 20 21 -7
26 -6 31 10 18 55 186 115 223 78z m3 -124 c23 -25 23 -26 2 -15 -12 6 -32 11
-45 12 -22 0 -22 1 -3 9 17 7 16 9 -10 9 -16 1 -44 -8 -62 -19 -18 -10 -35
-15 -38 -10 -9 15 47 39 91 40 31 0 46 -6 65 -26z m660 -14 l24 -21 -39 16
c-39 15 -39 15 -21 -5 26 -29 13 -25 -15 5 l-23 25 25 0 c14 0 36 -9 49 -20z
m49 -52 c10 -6 7 -7 -10 -2 -14 3 -32 11 -40 16 -10 6 -7 7 10 2 14 -3 32 -11
40 -16z m-610 -28 c42 -42 29 -50 -87 -50 l-106 0 23 25 c43 45 136 59 170 25z
m748 -34 c15 -15 8 -16 -96 -16 -62 0 -112 4 -112 8 0 34 176 41 208 8z
m-1424 -53 c-5 -5 -162 -6 -349 -3 l-340 6 349 2 c193 1 346 -1 340 -5z m1095
-9 c2 -2 -34 -4 -82 -4 -47 0 -89 5 -92 10 -6 9 163 3 174 -6z m201 -8 c97 1
132 -1 105 -7 -69 -14 -237 -10 -270 6 -23 12 -25 13 -5 8 14 -4 90 -7 170 -7z"/>
<path d="M2260 4540 c8 -5 22 -9 30 -9 10 0 8 3 -5 9 -27 12 -43 12 -25 0z"/>
<path d="M2223 4443 c-7 -3 -13 -12 -13 -21 0 -15 2 -15 17 1 18 18 16 27 -4
20z"/>
<path d="M2410 4385 c24 -14 24 -14 3 -15 -31 0 -36 -14 -13 -35 18 -16 20
-16 44 2 14 10 26 21 26 25 0 12 -44 38 -65 38 -18 -1 -18 -2 5 -15z"/>
<path d="M2335 4230 c3 -5 15 -10 26 -10 11 0 17 5 14 10 -3 6 -15 10 -26 10
-11 0 -17 -4 -14 -10z"/>
<path d="M1720 3558 c0 -25 48 -154 83 -223 44 -88 84 -141 141 -183 81 -61
83 -59 24 14 -76 95 -159 224 -208 324 -22 46 -40 77 -40 68z"/>
<path d="M1388 3294 c22 -33 53 -56 87 -67 20 -6 20 -6 1 6 -11 7 -40 30 -65
52 -42 37 -44 38 -23 9z"/>
<path d="M2266 3782 c-6 -11 -56 -234 -56 -253 0 -19 62 -52 87 -47 10 2 30
46 60 132 24 71 42 130 41 131 -13 10 -129 42 -132 37z m100 -57 c5 -11 -58
-211 -70 -222 -2 -2 -19 2 -38 10 l-34 15 24 103 c13 57 25 109 27 116 5 15
85 -4 91 -22z"/>
<path d="M2251 3351 c-30 -34 -47 -62 -41 -66 5 -3 15 -3 20 0 17 10 91 125
81 125 -5 0 -32 -27 -60 -59z"/>
<path d="M2637 3309 c-9 -5 -24 -24 -33 -42 l-16 -32 30 28 c16 16 47 35 68
42 l39 14 -35 0 c-19 0 -43 -4 -53 -10z"/>
<path d="M2121 3229 c-1 -22 31 -126 36 -113 2 5 -5 37 -16 70 -10 32 -19 52
-20 43z"/>
<path d="M2764 3018 c-14 -17 -15 -19 -2 -10 9 8 29 17 45 22 l28 8 -26 1
c-15 1 -34 -8 -45 -21z"/>
<path d="M1661 2924 c0 -11 3 -14 6 -6 3 7 2 16 -1 19 -3 4 -6 -2 -5 -13z"/>
<path d="M1770 1791 c0 -21 111 -29 128 -8 8 9 -5 13 -59 15 -38 1 -69 -1 -69
-7z"/>
<path d="M3175 960 c-30 -59 -8 -170 34 -170 24 0 37 17 45 60 5 28 5 31 -4
18 -24 -38 -56 -10 -44 38 7 26 23 31 42 12 16 -16 16 5 1 35 -24 46 -53 49
-74 7z"/>
</g>
</svg>